<svg width="1342" height="839" viewBox="0 0 1342 839" fill="none" xmlns="http://www.w3.org/2000/svg">
<g clip-path="url(#clip0_3499_1021)">
<circle cx="1.5" cy="1.5" r="1.5" fill="#D2D6DB"/>
<circle cx="54.5" cy="1.5" r="1.5" fill="#D2D6DB"/>
<circle cx="107.5" cy="1.5" r="1.5" fill="#D2D6DB"/>
<circle cx="160.5" cy="1.5" r="1.5" fill="#D2D6DB"/>
<circle cx="213.5" cy="1.5" r="1.5" fill="#D2D6DB"/>
<circle cx="266.5" cy="1.5" r="1.5" fill="#D2D6DB"/>
<circle cx="319.5" cy="1.5" r="1.5" fill="#D2D6DB"/>
<circle cx="372.5" cy="1.5" r="1.5" fill="#D2D6DB"/>
<circle cx="425.5" cy="1.5" r="1.5" fill="#D2D6DB"/>
<circle cx="478.5" cy="1.5" r="1.5" fill="#D2D6DB"/>
<circle cx="531.5" cy="1.5" r="1.5" fill="#D2D6DB"/>
<circle cx="584.5" cy="1.5" r="1.5" fill="#D2D6DB"/>
<circle cx="637.5" cy="1.5" r="1.5" fill="#D2D6DB"/>
<circle cx="690.5" cy="1.5" r="1.5" fill="#D2D6DB"/>
<circle cx="743.5" cy="1.5" r="1.5" fill="#D2D6DB"/>
<circle cx="796.5" cy="1.5" r="1.5" fill="#D2D6DB"/>
<circle cx="849.5" cy="1.5" r="1.5" fill="#D2D6DB"/>
<circle cx="902.5" cy="1.5" r="1.5" fill="#D2D6DB"/>
<circle cx="955.5" cy="1.5" r="1.5" fill="#D2D6DB"/>
<circle cx="1008.5" cy="1.5" r="1.5" fill="#D2D6DB"/>
<circle cx="1061.5" cy="1.5" r="1.5" fill="#D2D6DB"/>
<circle cx="1114.5" cy="1.5" r="1.5" fill="#D2D6DB"/>
<circle cx="1167.5" cy="1.5" r="1.5" fill="#D2D6DB"/>
<circle cx="1220.5" cy="1.5" r="1.5" fill="#D2D6DB"/>
<circle cx="1273.5" cy="1.5" r="1.5" fill="#D2D6DB"/>
<circle cx="1326.5" cy="1.5" r="1.5" fill="#D2D6DB"/>
<circle cx="1.5" cy="54.5" r="1.5" fill="#D2D6DB"/>
<circle cx="54.5" cy="54.5" r="1.5" fill="#D2D6DB"/>
<circle cx="107.5" cy="54.5" r="1.5" fill="#D2D6DB"/>
<circle cx="160.5" cy="54.5" r="1.5" fill="#D2D6DB"/>
<circle cx="213.5" cy="54.5" r="1.5" fill="#D2D6DB"/>
<circle cx="266.5" cy="54.5" r="1.5" fill="#D2D6DB"/>
<circle cx="319.5" cy="54.5" r="1.5" fill="#D2D6DB"/>
<circle cx="372.5" cy="54.5" r="1.5" fill="#D2D6DB"/>
<circle cx="425.5" cy="54.5" r="1.5" fill="#D2D6DB"/>
<circle cx="478.5" cy="54.5" r="1.5" fill="#D2D6DB"/>
<circle cx="531.5" cy="54.5" r="1.5" fill="#D2D6DB"/>
<circle cx="584.5" cy="54.5" r="1.5" fill="#D2D6DB"/>
<circle cx="637.5" cy="54.5" r="1.5" fill="#D2D6DB"/>
<circle cx="690.5" cy="54.5" r="1.5" fill="#D2D6DB"/>
<circle cx="743.5" cy="54.5" r="1.5" fill="#D2D6DB"/>
<circle cx="796.5" cy="54.5" r="1.5" fill="#D2D6DB"/>
<circle cx="849.5" cy="54.5" r="1.5" fill="#D2D6DB"/>
<circle cx="902.5" cy="54.5" r="1.5" fill="#D2D6DB"/>
<circle cx="955.5" cy="54.5" r="1.5" fill="#D2D6DB"/>
<circle cx="1008.5" cy="54.5" r="1.5" fill="#D2D6DB"/>
<circle cx="1061.5" cy="54.5" r="1.5" fill="#D2D6DB"/>
<circle cx="1114.5" cy="54.5" r="1.5" fill="#D2D6DB"/>
<circle cx="1167.5" cy="54.5" r="1.5" fill="#D2D6DB"/>
<circle cx="1220.5" cy="54.5" r="1.5" fill="#D2D6DB"/>
<circle cx="1273.5" cy="54.5" r="1.5" fill="#D2D6DB"/>
<circle cx="1326.5" cy="54.5" r="1.5" fill="#D2D6DB"/>
<circle cx="1.5" cy="107.5" r="1.5" fill="#D2D6DB"/>
<circle cx="54.5" cy="107.5" r="1.5" fill="#D2D6DB"/>
<circle cx="107.5" cy="107.5" r="1.5" fill="#D2D6DB"/>
<circle cx="160.5" cy="107.5" r="1.5" fill="#D2D6DB"/>
<circle cx="213.5" cy="107.5" r="1.5" fill="#D2D6DB"/>
<circle cx="266.5" cy="107.5" r="1.5" fill="#D2D6DB"/>
<circle cx="319.5" cy="107.5" r="1.5" fill="#D2D6DB"/>
<circle cx="372.5" cy="107.5" r="1.5" fill="#D2D6DB"/>
<circle cx="425.5" cy="107.5" r="1.5" fill="#D2D6DB"/>
<circle cx="478.5" cy="107.5" r="1.5" fill="#D2D6DB"/>
<circle cx="531.5" cy="107.5" r="1.5" fill="#D2D6DB"/>
<circle cx="584.5" cy="107.5" r="1.5" fill="#D2D6DB"/>
<circle cx="637.5" cy="107.5" r="1.5" fill="#D2D6DB"/>
<circle cx="690.5" cy="107.5" r="1.5" fill="#D2D6DB"/>
<circle cx="743.5" cy="107.5" r="1.5" fill="#D2D6DB"/>
<circle cx="796.5" cy="107.5" r="1.5" fill="#D2D6DB"/>
<circle cx="849.5" cy="107.5" r="1.5" fill="#D2D6DB"/>
<circle cx="902.5" cy="107.5" r="1.5" fill="#D2D6DB"/>
<circle cx="955.5" cy="107.5" r="1.5" fill="#D2D6DB"/>
<circle cx="1008.5" cy="107.5" r="1.5" fill="#D2D6DB"/>
<circle cx="1061.5" cy="107.5" r="1.5" fill="#D2D6DB"/>
<circle cx="1114.5" cy="107.5" r="1.5" fill="#D2D6DB"/>
<circle cx="1167.5" cy="107.5" r="1.5" fill="#D2D6DB"/>
<circle cx="1220.5" cy="107.5" r="1.5" fill="#D2D6DB"/>
<circle cx="1273.5" cy="107.5" r="1.5" fill="#D2D6DB"/>
<circle cx="1326.5" cy="107.5" r="1.5" fill="#D2D6DB"/>
<circle cx="1.5" cy="160.5" r="1.5" fill="#D2D6DB"/>
<circle cx="54.5" cy="160.5" r="1.5" fill="#D2D6DB"/>
<circle cx="107.5" cy="160.5" r="1.5" fill="#D2D6DB"/>
<circle cx="160.5" cy="160.5" r="1.5" fill="#D2D6DB"/>
<circle cx="213.5" cy="160.5" r="1.5" fill="#D2D6DB"/>
<circle cx="266.5" cy="160.5" r="1.5" fill="#D2D6DB"/>
<circle cx="319.5" cy="160.5" r="1.5" fill="#D2D6DB"/>
<circle cx="372.5" cy="160.5" r="1.5" fill="#D2D6DB"/>
<circle cx="425.5" cy="160.5" r="1.5" fill="#D2D6DB"/>
<circle cx="478.5" cy="160.5" r="1.5" fill="#D2D6DB"/>
<circle cx="531.5" cy="160.5" r="1.5" fill="#D2D6DB"/>
<circle cx="584.5" cy="160.5" r="1.5" fill="#D2D6DB"/>
<circle cx="637.5" cy="160.5" r="1.5" fill="#D2D6DB"/>
<circle cx="690.5" cy="160.5" r="1.5" fill="#D2D6DB"/>
<circle cx="743.5" cy="160.5" r="1.5" fill="#D2D6DB"/>
<circle cx="796.5" cy="160.5" r="1.5" fill="#D2D6DB"/>
<circle cx="849.5" cy="160.5" r="1.5" fill="#D2D6DB"/>
<circle cx="902.5" cy="160.5" r="1.5" fill="#D2D6DB"/>
<circle cx="955.5" cy="160.5" r="1.5" fill="#D2D6DB"/>
<circle cx="1008.5" cy="160.5" r="1.5" fill="#D2D6DB"/>
<circle cx="1061.5" cy="160.5" r="1.5" fill="#D2D6DB"/>
<circle cx="1114.5" cy="160.5" r="1.5" fill="#D2D6DB"/>
<circle cx="1167.5" cy="160.5" r="1.5" fill="#D2D6DB"/>
<circle cx="1220.5" cy="160.5" r="1.5" fill="#D2D6DB"/>
<circle cx="1273.5" cy="160.5" r="1.5" fill="#D2D6DB"/>
<circle cx="1326.5" cy="160.5" r="1.5" fill="#D2D6DB"/>
<circle cx="1.5" cy="213.5" r="1.5" fill="#D2D6DB"/>
<circle cx="54.5" cy="213.5" r="1.5" fill="#D2D6DB"/>
<circle cx="107.5" cy="213.5" r="1.5" fill="#D2D6DB"/>
<circle cx="160.5" cy="213.5" r="1.5" fill="#D2D6DB"/>
<circle cx="213.5" cy="213.5" r="1.5" fill="#D2D6DB"/>
<circle cx="266.5" cy="213.5" r="1.5" fill="#D2D6DB"/>
<circle cx="319.5" cy="213.5" r="1.5" fill="#D2D6DB"/>
<circle cx="372.5" cy="213.5" r="1.5" fill="#D2D6DB"/>
<circle cx="425.5" cy="213.5" r="1.5" fill="#D2D6DB"/>
<circle cx="478.5" cy="213.5" r="1.5" fill="#D2D6DB"/>
<circle cx="531.5" cy="213.5" r="1.5" fill="#D2D6DB"/>
<circle cx="584.5" cy="213.5" r="1.5" fill="#D2D6DB"/>
<circle cx="637.5" cy="213.5" r="1.5" fill="#D2D6DB"/>
<circle cx="690.5" cy="213.5" r="1.5" fill="#D2D6DB"/>
<circle cx="743.5" cy="213.5" r="1.5" fill="#D2D6DB"/>
<circle cx="796.5" cy="213.5" r="1.5" fill="#D2D6DB"/>
<circle cx="849.5" cy="213.5" r="1.5" fill="#D2D6DB"/>
<circle cx="902.5" cy="213.5" r="1.5" fill="#D2D6DB"/>
<circle cx="955.5" cy="213.5" r="1.5" fill="#D2D6DB"/>
<circle cx="1008.5" cy="213.5" r="1.5" fill="#D2D6DB"/>
<circle cx="1061.5" cy="213.5" r="1.5" fill="#D2D6DB"/>
<circle cx="1114.5" cy="213.5" r="1.5" fill="#D2D6DB"/>
<circle cx="1167.5" cy="213.5" r="1.5" fill="#D2D6DB"/>
<circle cx="1220.5" cy="213.5" r="1.5" fill="#D2D6DB"/>
<circle cx="1273.5" cy="213.5" r="1.5" fill="#D2D6DB"/>
<circle cx="1326.5" cy="213.5" r="1.5" fill="#D2D6DB"/>
<circle cx="1.5" cy="266.5" r="1.5" fill="#D2D6DB"/>
<circle cx="54.5" cy="266.5" r="1.5" fill="#D2D6DB"/>
<circle cx="107.5" cy="266.5" r="1.5" fill="#D2D6DB"/>
<circle cx="160.5" cy="266.5" r="1.5" fill="#D2D6DB"/>
<circle cx="213.5" cy="266.5" r="1.5" fill="#D2D6DB"/>
<circle cx="266.5" cy="266.5" r="1.5" fill="#D2D6DB"/>
<circle cx="319.5" cy="266.5" r="1.5" fill="#D2D6DB"/>
<circle cx="372.5" cy="266.5" r="1.5" fill="#D2D6DB"/>
<circle cx="425.5" cy="266.5" r="1.5" fill="#D2D6DB"/>
<circle cx="478.5" cy="266.5" r="1.5" fill="#D2D6DB"/>
<circle cx="531.5" cy="266.5" r="1.5" fill="#D2D6DB"/>
<circle cx="584.5" cy="266.5" r="1.5" fill="#D2D6DB"/>
<circle cx="637.5" cy="266.5" r="1.5" fill="#D2D6DB"/>
<circle cx="690.5" cy="266.5" r="1.5" fill="#D2D6DB"/>
<circle cx="743.5" cy="266.5" r="1.5" fill="#D2D6DB"/>
<circle cx="796.5" cy="266.5" r="1.5" fill="#D2D6DB"/>
<circle cx="849.5" cy="266.5" r="1.5" fill="#D2D6DB"/>
<circle cx="902.5" cy="266.5" r="1.5" fill="#D2D6DB"/>
<circle cx="955.5" cy="266.5" r="1.5" fill="#D2D6DB"/>
<circle cx="1008.5" cy="266.5" r="1.5" fill="#D2D6DB"/>
<circle cx="1061.5" cy="266.5" r="1.5" fill="#D2D6DB"/>
<circle cx="1114.5" cy="266.5" r="1.5" fill="#D2D6DB"/>
<circle cx="1167.5" cy="266.5" r="1.5" fill="#D2D6DB"/>
<circle cx="1220.5" cy="266.5" r="1.5" fill="#D2D6DB"/>
<circle cx="1273.5" cy="266.5" r="1.5" fill="#D2D6DB"/>
<circle cx="1326.5" cy="266.5" r="1.5" fill="#D2D6DB"/>
<circle cx="1.5" cy="319.5" r="1.5" fill="#D2D6DB"/>
<circle cx="54.5" cy="319.5" r="1.5" fill="#D2D6DB"/>
<circle cx="107.5" cy="319.5" r="1.5" fill="#D2D6DB"/>
<circle cx="160.5" cy="319.5" r="1.5" fill="#D2D6DB"/>
<circle cx="213.5" cy="319.5" r="1.5" fill="#D2D6DB"/>
<circle cx="266.5" cy="319.5" r="1.5" fill="#D2D6DB"/>
<circle cx="319.5" cy="319.5" r="1.5" fill="#D2D6DB"/>
<circle cx="372.5" cy="319.5" r="1.5" fill="#D2D6DB"/>
<circle cx="425.5" cy="319.5" r="1.5" fill="#D2D6DB"/>
<circle cx="478.5" cy="319.5" r="1.5" fill="#D2D6DB"/>
<circle cx="531.5" cy="319.5" r="1.5" fill="#D2D6DB"/>
<circle cx="584.5" cy="319.5" r="1.5" fill="#D2D6DB"/>
<circle cx="637.5" cy="319.5" r="1.5" fill="#D2D6DB"/>
<circle cx="690.5" cy="319.5" r="1.5" fill="#D2D6DB"/>
<circle cx="743.5" cy="319.5" r="1.5" fill="#D2D6DB"/>
<circle cx="796.5" cy="319.5" r="1.5" fill="#D2D6DB"/>
<circle cx="849.5" cy="319.5" r="1.5" fill="#D2D6DB"/>
<circle cx="902.5" cy="319.5" r="1.5" fill="#D2D6DB"/>
<circle cx="955.5" cy="319.5" r="1.5" fill="#D2D6DB"/>
<circle cx="1008.5" cy="319.5" r="1.5" fill="#D2D6DB"/>
<circle cx="1061.5" cy="319.5" r="1.5" fill="#D2D6DB"/>
<circle cx="1114.5" cy="319.5" r="1.5" fill="#D2D6DB"/>
<circle cx="1167.5" cy="319.5" r="1.5" fill="#D2D6DB"/>
<circle cx="1220.5" cy="319.5" r="1.5" fill="#D2D6DB"/>
<circle cx="1273.5" cy="319.5" r="1.5" fill="#D2D6DB"/>
<circle cx="1326.5" cy="319.5" r="1.5" fill="#D2D6DB"/>
<circle cx="1.5" cy="372.5" r="1.5" fill="#D2D6DB"/>
<circle cx="54.5" cy="372.5" r="1.5" fill="#D2D6DB"/>
<circle cx="107.5" cy="372.5" r="1.5" fill="#D2D6DB"/>
<circle cx="160.5" cy="372.5" r="1.5" fill="#D2D6DB"/>
<circle cx="213.5" cy="372.5" r="1.5" fill="#D2D6DB"/>
<circle cx="266.5" cy="372.5" r="1.5" fill="#D2D6DB"/>
<circle cx="319.5" cy="372.5" r="1.5" fill="#D2D6DB"/>
<circle cx="372.5" cy="372.5" r="1.5" fill="#D2D6DB"/>
<circle cx="425.5" cy="372.5" r="1.5" fill="#D2D6DB"/>
<circle cx="478.5" cy="372.5" r="1.5" fill="#D2D6DB"/>
<circle cx="531.5" cy="372.5" r="1.5" fill="#D2D6DB"/>
<circle cx="584.5" cy="372.5" r="1.5" fill="#D2D6DB"/>
<circle cx="637.5" cy="372.5" r="1.5" fill="#D2D6DB"/>
<circle cx="690.5" cy="372.5" r="1.5" fill="#D2D6DB"/>
<circle cx="743.5" cy="372.5" r="1.5" fill="#D2D6DB"/>
<circle cx="796.5" cy="372.5" r="1.5" fill="#D2D6DB"/>
<circle cx="849.5" cy="372.5" r="1.5" fill="#D2D6DB"/>
<circle cx="902.5" cy="372.5" r="1.5" fill="#D2D6DB"/>
<circle cx="955.5" cy="372.5" r="1.5" fill="#D2D6DB"/>
<circle cx="1008.5" cy="372.5" r="1.5" fill="#D2D6DB"/>
<circle cx="1061.5" cy="372.5" r="1.5" fill="#D2D6DB"/>
<circle cx="1114.5" cy="372.5" r="1.5" fill="#D2D6DB"/>
<circle cx="1167.5" cy="372.5" r="1.5" fill="#D2D6DB"/>
<circle cx="1220.5" cy="372.5" r="1.5" fill="#D2D6DB"/>
<circle cx="1273.5" cy="372.5" r="1.5" fill="#D2D6DB"/>
<circle cx="1326.5" cy="372.5" r="1.5" fill="#D2D6DB"/>
<circle cx="1.5" cy="425.5" r="1.5" fill="#D2D6DB"/>
<circle cx="54.5" cy="425.5" r="1.5" fill="#D2D6DB"/>
<circle cx="107.5" cy="425.5" r="1.5" fill="#D2D6DB"/>
<circle cx="160.5" cy="425.5" r="1.5" fill="#D2D6DB"/>
<circle cx="213.5" cy="425.5" r="1.5" fill="#D2D6DB"/>
<circle cx="266.5" cy="425.5" r="1.5" fill="#D2D6DB"/>
<circle cx="319.5" cy="425.5" r="1.5" fill="#D2D6DB"/>
<circle cx="372.5" cy="425.5" r="1.5" fill="#D2D6DB"/>
<circle cx="425.5" cy="425.5" r="1.5" fill="#D2D6DB"/>
<circle cx="478.5" cy="425.5" r="1.5" fill="#D2D6DB"/>
<circle cx="531.5" cy="425.5" r="1.5" fill="#D2D6DB"/>
<circle cx="584.5" cy="425.5" r="1.5" fill="#D2D6DB"/>
<circle cx="637.5" cy="425.5" r="1.5" fill="#D2D6DB"/>
<circle cx="690.5" cy="425.5" r="1.5" fill="#D2D6DB"/>
<circle cx="743.5" cy="425.5" r="1.5" fill="#D2D6DB"/>
<circle cx="796.5" cy="425.5" r="1.5" fill="#D2D6DB"/>
<circle cx="849.5" cy="425.5" r="1.5" fill="#D2D6DB"/>
<circle cx="902.5" cy="425.5" r="1.5" fill="#D2D6DB"/>
<circle cx="955.5" cy="425.5" r="1.5" fill="#D2D6DB"/>
<circle cx="1008.5" cy="425.5" r="1.5" fill="#D2D6DB"/>
<circle cx="1061.5" cy="425.5" r="1.5" fill="#D2D6DB"/>
<circle cx="1114.5" cy="425.5" r="1.5" fill="#D2D6DB"/>
<circle cx="1167.5" cy="425.5" r="1.5" fill="#D2D6DB"/>
<circle cx="1220.5" cy="425.5" r="1.5" fill="#D2D6DB"/>
<circle cx="1273.5" cy="425.5" r="1.5" fill="#D2D6DB"/>
<circle cx="1326.5" cy="425.5" r="1.5" fill="#D2D6DB"/>
<circle cx="1.5" cy="478.5" r="1.5" fill="#D2D6DB"/>
<circle cx="54.5" cy="478.5" r="1.5" fill="#D2D6DB"/>
<circle cx="107.5" cy="478.5" r="1.5" fill="#D2D6DB"/>
<circle cx="160.5" cy="478.5" r="1.5" fill="#D2D6DB"/>
<circle cx="213.5" cy="478.5" r="1.5" fill="#D2D6DB"/>
<circle cx="266.5" cy="478.5" r="1.5" fill="#D2D6DB"/>
<circle cx="319.5" cy="478.5" r="1.5" fill="#D2D6DB"/>
<circle cx="372.5" cy="478.5" r="1.5" fill="#D2D6DB"/>
<circle cx="425.5" cy="478.5" r="1.5" fill="#D2D6DB"/>
<circle cx="478.5" cy="478.5" r="1.5" fill="#D2D6DB"/>
<circle cx="531.5" cy="478.5" r="1.5" fill="#D2D6DB"/>
<circle cx="584.5" cy="478.5" r="1.5" fill="#D2D6DB"/>
<circle cx="637.5" cy="478.5" r="1.5" fill="#D2D6DB"/>
<circle cx="690.5" cy="478.5" r="1.5" fill="#D2D6DB"/>
<circle cx="743.5" cy="478.5" r="1.5" fill="#D2D6DB"/>
<circle cx="796.5" cy="478.5" r="1.5" fill="#D2D6DB"/>
<circle cx="849.5" cy="478.5" r="1.5" fill="#D2D6DB"/>
<circle cx="902.5" cy="478.5" r="1.5" fill="#D2D6DB"/>
<circle cx="955.5" cy="478.5" r="1.5" fill="#D2D6DB"/>
<circle cx="1008.5" cy="478.5" r="1.5" fill="#D2D6DB"/>
<circle cx="1061.5" cy="478.5" r="1.5" fill="#D2D6DB"/>
<circle cx="1114.5" cy="478.5" r="1.5" fill="#D2D6DB"/>
<circle cx="1167.5" cy="478.5" r="1.5" fill="#D2D6DB"/>
<circle cx="1220.5" cy="478.5" r="1.5" fill="#D2D6DB"/>
<circle cx="1273.5" cy="478.5" r="1.5" fill="#D2D6DB"/>
<circle cx="1326.5" cy="478.5" r="1.5" fill="#D2D6DB"/>
<circle cx="1.5" cy="531.5" r="1.5" fill="#D2D6DB"/>
<circle cx="54.5" cy="531.5" r="1.5" fill="#D2D6DB"/>
<circle cx="107.5" cy="531.5" r="1.5" fill="#D2D6DB"/>
<circle cx="160.5" cy="531.5" r="1.5" fill="#D2D6DB"/>
<circle cx="213.5" cy="531.5" r="1.5" fill="#D2D6DB"/>
<circle cx="266.5" cy="531.5" r="1.5" fill="#D2D6DB"/>
<circle cx="319.5" cy="531.5" r="1.5" fill="#D2D6DB"/>
<circle cx="372.5" cy="531.5" r="1.5" fill="#D2D6DB"/>
<circle cx="425.5" cy="531.5" r="1.5" fill="#D2D6DB"/>
<circle cx="478.5" cy="531.5" r="1.5" fill="#D2D6DB"/>
<circle cx="531.5" cy="531.5" r="1.5" fill="#D2D6DB"/>
<circle cx="584.5" cy="531.5" r="1.5" fill="#D2D6DB"/>
<circle cx="637.5" cy="531.5" r="1.5" fill="#D2D6DB"/>
<circle cx="690.5" cy="531.5" r="1.5" fill="#D2D6DB"/>
<circle cx="743.5" cy="531.5" r="1.5" fill="#D2D6DB"/>
<circle cx="796.5" cy="531.5" r="1.5" fill="#D2D6DB"/>
<circle cx="849.5" cy="531.5" r="1.5" fill="#D2D6DB"/>
<circle cx="902.5" cy="531.5" r="1.5" fill="#D2D6DB"/>
<circle cx="955.5" cy="531.5" r="1.5" fill="#D2D6DB"/>
<circle cx="1008.5" cy="531.5" r="1.5" fill="#D2D6DB"/>
<circle cx="1061.5" cy="531.5" r="1.5" fill="#D2D6DB"/>
<circle cx="1114.5" cy="531.5" r="1.5" fill="#D2D6DB"/>
<circle cx="1167.5" cy="531.5" r="1.5" fill="#D2D6DB"/>
<circle cx="1220.5" cy="531.5" r="1.5" fill="#D2D6DB"/>
<circle cx="1273.5" cy="531.5" r="1.5" fill="#D2D6DB"/>
<circle cx="1326.5" cy="531.5" r="1.5" fill="#D2D6DB"/>
<circle cx="1.5" cy="584.5" r="1.5" fill="#D2D6DB"/>
<circle cx="54.5" cy="584.5" r="1.5" fill="#D2D6DB"/>
<circle cx="107.5" cy="584.5" r="1.5" fill="#D2D6DB"/>
<circle cx="160.5" cy="584.5" r="1.5" fill="#D2D6DB"/>
<circle cx="213.5" cy="584.5" r="1.5" fill="#D2D6DB"/>
<circle cx="266.5" cy="584.5" r="1.5" fill="#D2D6DB"/>
<circle cx="319.5" cy="584.5" r="1.5" fill="#D2D6DB"/>
<circle cx="372.5" cy="584.5" r="1.5" fill="#D2D6DB"/>
<circle cx="425.5" cy="584.5" r="1.5" fill="#D2D6DB"/>
<circle cx="478.5" cy="584.5" r="1.5" fill="#D2D6DB"/>
<circle cx="531.5" cy="584.5" r="1.5" fill="#D2D6DB"/>
<circle cx="584.5" cy="584.5" r="1.5" fill="#D2D6DB"/>
<circle cx="637.5" cy="584.5" r="1.5" fill="#D2D6DB"/>
<circle cx="690.5" cy="584.5" r="1.5" fill="#D2D6DB"/>
<circle cx="743.5" cy="584.5" r="1.5" fill="#D2D6DB"/>
<circle cx="796.5" cy="584.5" r="1.5" fill="#D2D6DB"/>
<circle cx="849.5" cy="584.5" r="1.5" fill="#D2D6DB"/>
<circle cx="902.5" cy="584.5" r="1.5" fill="#D2D6DB"/>
<circle cx="955.5" cy="584.5" r="1.5" fill="#D2D6DB"/>
<circle cx="1008.5" cy="584.5" r="1.5" fill="#D2D6DB"/>
<circle cx="1061.5" cy="584.5" r="1.5" fill="#D2D6DB"/>
<circle cx="1114.5" cy="584.5" r="1.5" fill="#D2D6DB"/>
<circle cx="1167.5" cy="584.5" r="1.5" fill="#D2D6DB"/>
<circle cx="1220.5" cy="584.5" r="1.5" fill="#D2D6DB"/>
<circle cx="1273.5" cy="584.5" r="1.5" fill="#D2D6DB"/>
<circle cx="1326.5" cy="584.5" r="1.5" fill="#D2D6DB"/>
<circle cx="1.5" cy="637.5" r="1.5" fill="#D2D6DB"/>
<circle cx="54.5" cy="637.5" r="1.5" fill="#D2D6DB"/>
<circle cx="107.5" cy="637.5" r="1.5" fill="#D2D6DB"/>
<circle cx="160.5" cy="637.5" r="1.5" fill="#D2D6DB"/>
<circle cx="213.5" cy="637.5" r="1.5" fill="#D2D6DB"/>
<circle cx="266.5" cy="637.5" r="1.5" fill="#D2D6DB"/>
<circle cx="319.5" cy="637.5" r="1.5" fill="#D2D6DB"/>
<circle cx="372.5" cy="637.5" r="1.5" fill="#D2D6DB"/>
<circle cx="425.5" cy="637.5" r="1.5" fill="#D2D6DB"/>
<circle cx="478.5" cy="637.5" r="1.5" fill="#D2D6DB"/>
<circle cx="531.5" cy="637.5" r="1.5" fill="#D2D6DB"/>
<circle cx="584.5" cy="637.5" r="1.5" fill="#D2D6DB"/>
<circle cx="637.5" cy="637.5" r="1.5" fill="#D2D6DB"/>
<circle cx="690.5" cy="637.5" r="1.5" fill="#D2D6DB"/>
<circle cx="743.5" cy="637.5" r="1.5" fill="#D2D6DB"/>
<circle cx="796.5" cy="637.5" r="1.5" fill="#D2D6DB"/>
<circle cx="849.5" cy="637.5" r="1.5" fill="#D2D6DB"/>
<circle cx="902.5" cy="637.5" r="1.5" fill="#D2D6DB"/>
<circle cx="955.5" cy="637.5" r="1.5" fill="#D2D6DB"/>
<circle cx="1008.5" cy="637.5" r="1.5" fill="#D2D6DB"/>
<circle cx="1061.5" cy="637.5" r="1.5" fill="#D2D6DB"/>
<circle cx="1114.5" cy="637.5" r="1.5" fill="#D2D6DB"/>
<circle cx="1167.5" cy="637.5" r="1.5" fill="#D2D6DB"/>
<circle cx="1220.5" cy="637.5" r="1.5" fill="#D2D6DB"/>
<circle cx="1273.5" cy="637.5" r="1.5" fill="#D2D6DB"/>
<circle cx="1326.5" cy="637.5" r="1.5" fill="#D2D6DB"/>
<circle cx="1.5" cy="690.5" r="1.5" fill="#D2D6DB"/>
<circle cx="54.5" cy="690.5" r="1.5" fill="#D2D6DB"/>
<circle cx="107.5" cy="690.5" r="1.5" fill="#D2D6DB"/>
<circle cx="160.5" cy="690.5" r="1.5" fill="#D2D6DB"/>
<circle cx="213.5" cy="690.5" r="1.5" fill="#D2D6DB"/>
<circle cx="266.5" cy="690.5" r="1.5" fill="#D2D6DB"/>
<circle cx="319.5" cy="690.5" r="1.5" fill="#D2D6DB"/>
<circle cx="372.5" cy="690.5" r="1.5" fill="#D2D6DB"/>
<circle cx="425.5" cy="690.5" r="1.5" fill="#D2D6DB"/>
<circle cx="478.5" cy="690.5" r="1.5" fill="#D2D6DB"/>
<circle cx="531.5" cy="690.5" r="1.5" fill="#D2D6DB"/>
<circle cx="584.5" cy="690.5" r="1.5" fill="#D2D6DB"/>
<circle cx="637.5" cy="690.5" r="1.5" fill="#D2D6DB"/>
<circle cx="690.5" cy="690.5" r="1.5" fill="#D2D6DB"/>
<circle cx="743.5" cy="690.5" r="1.5" fill="#D2D6DB"/>
<circle cx="796.5" cy="690.5" r="1.5" fill="#D2D6DB"/>
<circle cx="849.5" cy="690.5" r="1.5" fill="#D2D6DB"/>
<circle cx="902.5" cy="690.5" r="1.5" fill="#D2D6DB"/>
<circle cx="955.5" cy="690.5" r="1.5" fill="#D2D6DB"/>
<circle cx="1008.5" cy="690.5" r="1.5" fill="#D2D6DB"/>
<circle cx="1061.5" cy="690.5" r="1.5" fill="#D2D6DB"/>
<circle cx="1114.5" cy="690.5" r="1.5" fill="#D2D6DB"/>
<circle cx="1167.5" cy="690.5" r="1.5" fill="#D2D6DB"/>
<circle cx="1220.5" cy="690.5" r="1.5" fill="#D2D6DB"/>
<circle cx="1273.5" cy="690.5" r="1.5" fill="#D2D6DB"/>
<circle cx="1326.5" cy="690.5" r="1.5" fill="#D2D6DB"/>
<circle cx="1.5" cy="743.5" r="1.5" fill="#D2D6DB"/>
<circle cx="54.5" cy="743.5" r="1.5" fill="#D2D6DB"/>
<circle cx="107.5" cy="743.5" r="1.5" fill="#D2D6DB"/>
<circle cx="160.5" cy="743.5" r="1.5" fill="#D2D6DB"/>
<circle cx="213.5" cy="743.5" r="1.5" fill="#D2D6DB"/>
<circle cx="266.5" cy="743.5" r="1.5" fill="#D2D6DB"/>
<circle cx="319.5" cy="743.5" r="1.5" fill="#D2D6DB"/>
<circle cx="372.5" cy="743.5" r="1.5" fill="#D2D6DB"/>
<circle cx="425.5" cy="743.5" r="1.5" fill="#D2D6DB"/>
<circle cx="478.5" cy="743.5" r="1.5" fill="#D2D6DB"/>
<circle cx="531.5" cy="743.5" r="1.5" fill="#D2D6DB"/>
<circle cx="584.5" cy="743.5" r="1.5" fill="#D2D6DB"/>
<circle cx="637.5" cy="743.5" r="1.5" fill="#D2D6DB"/>
<circle cx="690.5" cy="743.5" r="1.5" fill="#D2D6DB"/>
<circle cx="743.5" cy="743.5" r="1.5" fill="#D2D6DB"/>
<circle cx="796.5" cy="743.5" r="1.5" fill="#D2D6DB"/>
<circle cx="849.5" cy="743.5" r="1.5" fill="#D2D6DB"/>
<circle cx="902.5" cy="743.5" r="1.5" fill="#D2D6DB"/>
<circle cx="955.5" cy="743.5" r="1.5" fill="#D2D6DB"/>
<circle cx="1008.5" cy="743.5" r="1.5" fill="#D2D6DB"/>
<circle cx="1061.5" cy="743.5" r="1.5" fill="#D2D6DB"/>
<circle cx="1114.5" cy="743.5" r="1.5" fill="#D2D6DB"/>
<circle cx="1167.5" cy="743.5" r="1.5" fill="#D2D6DB"/>
<circle cx="1220.5" cy="743.5" r="1.5" fill="#D2D6DB"/>
<circle cx="1273.5" cy="743.5" r="1.5" fill="#D2D6DB"/>
<circle cx="1326.5" cy="743.5" r="1.5" fill="#D2D6DB"/>
<circle cx="1.5" cy="796.5" r="1.5" fill="#D2D6DB"/>
<circle cx="54.5" cy="796.5" r="1.5" fill="#D2D6DB"/>
<circle cx="107.5" cy="796.5" r="1.5" fill="#D2D6DB"/>
<circle cx="160.5" cy="796.5" r="1.5" fill="#D2D6DB"/>
<circle cx="213.5" cy="796.5" r="1.5" fill="#D2D6DB"/>
<circle cx="266.5" cy="796.5" r="1.5" fill="#D2D6DB"/>
<circle cx="319.5" cy="796.5" r="1.5" fill="#D2D6DB"/>
<circle cx="372.5" cy="796.5" r="1.5" fill="#D2D6DB"/>
<circle cx="425.5" cy="796.5" r="1.5" fill="#D2D6DB"/>
<circle cx="478.5" cy="796.5" r="1.5" fill="#D2D6DB"/>
<circle cx="531.5" cy="796.5" r="1.5" fill="#D2D6DB"/>
<circle cx="584.5" cy="796.5" r="1.5" fill="#D2D6DB"/>
<circle cx="637.5" cy="796.5" r="1.5" fill="#D2D6DB"/>
<circle cx="690.5" cy="796.5" r="1.5" fill="#D2D6DB"/>
<circle cx="743.5" cy="796.5" r="1.5" fill="#D2D6DB"/>
<circle cx="796.5" cy="796.5" r="1.5" fill="#D2D6DB"/>
<circle cx="849.5" cy="796.5" r="1.5" fill="#D2D6DB"/>
<circle cx="902.5" cy="796.5" r="1.5" fill="#D2D6DB"/>
<circle cx="955.5" cy="796.5" r="1.5" fill="#D2D6DB"/>
<circle cx="1008.5" cy="796.5" r="1.5" fill="#D2D6DB"/>
<circle cx="1061.5" cy="796.5" r="1.5" fill="#D2D6DB"/>
<circle cx="1114.5" cy="796.5" r="1.5" fill="#D2D6DB"/>
<circle cx="1167.5" cy="796.5" r="1.5" fill="#D2D6DB"/>
<circle cx="1220.5" cy="796.5" r="1.5" fill="#D2D6DB"/>
<circle cx="1273.5" cy="796.5" r="1.5" fill="#D2D6DB"/>
<circle cx="1326.5" cy="796.5" r="1.5" fill="#D2D6DB"/>
</g>
<defs>
<clipPath id="clip0_3499_1021">
<rect width="1342" height="838.75" fill="white"/>
</clipPath>
</defs>
</svg>
