<svg width="24" height="25" viewBox="0 0 24 25" fill="none" xmlns="http://www.w3.org/2000/svg">
<path d="M17 2.97852H7C4.23858 2.97852 2 5.21709 2 7.97852V17.9785C2 20.7399 4.23858 22.9785 7 22.9785H17C19.7614 22.9785 22 20.7399 22 17.9785V7.97852C22 5.21709 19.7614 2.97852 17 2.97852Z" stroke="#2B2C34" stroke-width="2" stroke-linecap="round" stroke-linejoin="round"/>
<path d="M16 12.3486C16.1234 13.1808 15.9813 14.0308 15.5938 14.7776C15.2063 15.5244 14.5932 16.13 13.8416 16.5082C13.0901 16.8865 12.2385 17.0182 11.4078 16.8845C10.5771 16.7508 9.80977 16.3587 9.21485 15.7637C8.61993 15.1688 8.22774 14.4014 8.09408 13.5708C7.96042 12.7401 8.09208 11.8885 8.47034 11.1369C8.8486 10.3854 9.4542 9.77231 10.201 9.38481C10.9478 8.99732 11.7978 8.85516 12.63 8.97857C13.4789 9.10446 14.2649 9.50004 14.8717 10.1069C15.4785 10.7137 15.8741 11.4997 16 12.3486Z" stroke="#2B2C34" stroke-width="2" stroke-linecap="round" stroke-linejoin="round"/>
<path d="M17.5 7.47852H17.51" stroke="#2B2C34" stroke-width="2" stroke-linecap="round" stroke-linejoin="round"/>
</svg>
