<svg width="24" height="25" viewBox="0 0 24 25" fill="none" xmlns="http://www.w3.org/2000/svg">
<path d="M16 8.97852C17.5913 8.97852 19.1174 9.61066 20.2426 10.7359C21.3679 11.8611 22 13.3872 22 14.9785V21.9785H18V14.9785C18 14.4481 17.7893 13.9394 17.4142 13.5643C17.0391 13.1892 16.5304 12.9785 16 12.9785C15.4696 12.9785 14.9609 13.1892 14.5858 13.5643C14.2107 13.9394 14 14.4481 14 14.9785V21.9785H10V14.9785C10 13.3872 10.6321 11.8611 11.7574 10.7359C12.8826 9.61066 14.4087 8.97852 16 8.97852V8.97852Z" stroke="#2B2C34" stroke-width="2" stroke-linecap="round" stroke-linejoin="round"/>
<path d="M6 9.97852H2V21.9785H6V9.97852Z" stroke="#2B2C34" stroke-width="2" stroke-linecap="round" stroke-linejoin="round"/>
<path d="M4 6.97852C5.10457 6.97852 6 6.08309 6 4.97852C6 3.87395 5.10457 2.97852 4 2.97852C2.89543 2.97852 2 3.87395 2 4.97852C2 6.08309 2.89543 6.97852 4 6.97852Z" stroke="#2B2C34" stroke-width="2" stroke-linecap="round" stroke-linejoin="round"/>
</svg>
