<svg width="14" height="14" viewBox="0 0 14 14" fill="none" xmlns="http://www.w3.org/2000/svg">
<path d="M6.08332 11.7393C7.3406 11.7391 8.56164 11.3182 9.55203 10.5437L12.6659 13.6575L13.6674 12.6559L10.5536 9.54209C11.3285 8.5516 11.7497 7.33027 11.75 6.07267C11.75 2.94821 9.20778 0.406006 6.08332 0.406006C2.95886 0.406006 0.416656 2.94821 0.416656 6.07267C0.416656 9.19713 2.95886 11.7393 6.08332 11.7393ZM6.08332 1.82267C8.4272 1.82267 10.3333 3.7288 10.3333 6.07267C10.3333 8.41655 8.4272 10.3227 6.08332 10.3227C3.73945 10.3227 1.83332 8.41655 1.83332 6.07267C1.83332 3.7288 3.73945 1.82267 6.08332 1.82267Z" fill="#2B2C34"/>
</svg>
