<svg width="24" height="20" viewBox="0 0 24 20" fill="none" xmlns="http://www.w3.org/2000/svg">
<path d="M23 1.01665C22.0424 1.69212 20.9821 2.20876 19.86 2.54665C19.2577 1.85416 18.4573 1.36334 17.567 1.14057C16.6767 0.917808 15.7395 0.973843 14.8821 1.3011C14.0247 1.62836 13.2884 2.21105 12.773 2.97036C12.2575 3.72968 11.9877 4.62898 12 5.54665V6.54665C10.2426 6.59222 8.50127 6.20246 6.93101 5.41209C5.36074 4.62173 4.01032 3.45528 3 2.01665C3 2.01665 -1 11.0166 8 15.0166C5.94053 16.4146 3.48716 17.1156 1 17.0166C10 22.0166 21 17.0166 21 5.51665C20.9991 5.2381 20.9723 4.96024 20.92 4.68665C21.9406 3.68014 22.6608 2.40936 23 1.01665V1.01665Z" stroke="#2B2C34" stroke-width="2" stroke-linecap="round" stroke-linejoin="round"/>
</svg>
